<svg width="82" height="82" viewBox="0 0 82 82" fill="none" xmlns="http://www.w3.org/2000/svg">
<g clip-path="url(#clip0)">
<path d="M15.6902 39.8455L42.1546 66.3099C43.8073 67.9625 46.487 67.9625 48.1397 66.3099C48.934 65.5163 49.3797 64.4389 49.3797 63.316V49.5506L74.775 24.1553L76.8912 26.2715C78.0603 27.4399 79.9547 27.4399 81.1238 26.2715C82.2921 25.1025 82.2921 23.208 81.1238 22.039L59.9611 0.876269C58.792 -0.29209 56.8976 -0.29209 55.7285 0.876269C54.5602 2.04532 54.5602 3.93977 55.7285 5.10882L57.8448 7.22509L32.4495 32.6204H18.6841C17.5612 32.6204 16.4838 33.0661 15.6902 33.8604C14.0375 35.513 14.0375 38.1921 15.6902 39.8455Z" fill="#494949"/>
<path d="M31.0387 55.1939L9.75607 76.4765C7.06458 79.168 3.69246 81.0769 0 82C0.923114 78.3076 2.83203 74.9355 5.52353 72.244L26.8061 50.9614L31.0387 55.1939Z" fill="#CCCCCC"/>
</g>
<defs>
<clipPath id="clip0">
<rect width="82" height="82" fill="white"/>
</clipPath>
</defs>
</svg>
