<svg width="74" height="73" viewBox="0 0 74 73" fill="none" xmlns="http://www.w3.org/2000/svg">
<g clip-path="url(#clip0)">
<path d="M72.6575 21.4008C72.2551 20.9477 71.6805 20.6888 71.0773 20.6888H62.8022V13.2419C62.8022 12.0608 61.8526 11.1033 60.6812 11.1033H24.2795V8.55112C24.2795 7.37 23.3299 6.41245 22.1585 6.41245H2.92263C1.75128 6.41245 0.801636 7.37 0.801636 8.55112L0.804181 64.435C0.800363 64.9281 0.964528 65.4118 1.27886 65.8004C1.68171 66.2985 2.2852 66.5875 2.92263 66.5875H66.5107C67.5918 66.5875 68.4999 65.7676 68.6188 64.684L73.1855 23.0624C73.2518 22.4582 73.0598 21.8539 72.6575 21.4008ZM5.04363 10.6898H20.0375V13.2419C20.0375 14.4231 20.9872 15.3806 22.1585 15.3806H58.5602V20.6888H11.4072C10.4004 20.6888 9.53237 21.4024 9.32974 22.3969L5.04363 43.4224V10.6898ZM64.6114 62.3105H5.52382L13.1365 24.9663H68.7087L64.6114 62.3105Z" fill="white"/>
</g>
<defs>
<clipPath id="clip0">
<rect width="72.3967" height="73" fill="white" transform="translate(0.801636)"/>
</clipPath>
</defs>
</svg>
