<svg width="61" height="60" viewBox="0 0 61 60" fill="none" xmlns="http://www.w3.org/2000/svg">
<path d="M57.2808 27H33.4795V2.99982C33.4795 1.34418 32.1465 0 30.504 0C28.862 0 27.5289 1.34418 27.5289 2.99982V27H3.7271C2.08514 27 0.752075 28.3442 0.752075 29.9998C0.752075 31.656 2.08514 33.0002 3.7271 33.0002H27.5289V56.9998C27.5289 58.656 28.862 60.0002 30.504 60.0002C32.1465 60.0002 33.4795 58.656 33.4795 56.9998V33.0002H57.2808C58.9233 33.0002 60.2564 31.656 60.2564 29.9998C60.2564 28.3442 58.9233 27 57.2808 27V27Z" fill="white"/>
</svg>
