<svg width="81" height="80" viewBox="0 0 81 80" fill="none" xmlns="http://www.w3.org/2000/svg">
<g clip-path="url(#clip0)">
<path d="M51.4477 28.9841C50.4214 28.9841 49.5897 29.8228 49.5897 30.8576V66.2675C49.5897 67.3016 50.4214 68.141 51.4477 68.141C52.474 68.141 53.3058 67.3016 53.3058 66.2675V30.8576C53.3058 29.8228 52.474 28.9841 51.4477 28.9841Z" fill="white"/>
<path d="M29.5228 28.9841C28.4965 28.9841 27.6647 29.8228 27.6647 30.8576V66.2675C27.6647 67.3016 28.4965 68.141 29.5228 68.141C30.5491 68.141 31.3808 67.3016 31.3808 66.2675V30.8576C31.3808 29.8228 30.5491 28.9841 29.5228 28.9841Z" fill="white"/>
<path d="M13.5436 23.8165V69.9764C13.5436 72.7047 14.5357 75.2669 16.269 77.1053C17.9942 78.9488 20.3951 79.9953 22.9078 79.9997H58.0627C60.5761 79.9953 62.9771 78.9488 64.7016 77.1053C66.4348 75.2669 67.4269 72.7047 67.4269 69.9764V23.8165C70.8723 22.8944 73.1049 19.5381 72.644 15.9733C72.1824 12.4092 69.171 9.74309 65.6059 9.74236H56.0929V7.40045C56.1037 5.43104 55.3315 3.53995 53.9488 2.14871C52.5662 0.758196 50.6878 -0.0160986 48.7347 2.02588e-06H32.2358C30.2827 -0.0160986 28.4043 0.758196 27.0217 2.14871C25.639 3.53995 24.8668 5.43104 24.8777 7.40045V9.74236H15.3646C11.7995 9.74309 8.78814 12.4092 8.32653 15.9733C7.86564 19.5381 10.0982 22.8944 13.5436 23.8165V23.8165ZM58.0627 76.2527H22.9078C19.731 76.2527 17.2597 73.5009 17.2597 69.9764V23.9812H63.7108V69.9764C63.7108 73.5009 61.2395 76.2527 58.0627 76.2527ZM28.5938 7.40045C28.5814 6.42489 28.9617 5.48593 29.6483 4.79726C30.3342 4.1086 31.2676 3.73023 32.2358 3.74706H48.7347C49.7029 3.73023 50.6363 4.1086 51.3222 4.79726C52.0088 5.4852 52.3891 6.42489 52.3768 7.40045V9.74236H28.5938V7.40045ZM15.3646 13.4894H65.6059C67.4531 13.4894 68.9504 14.9992 68.9504 16.8618C68.9504 18.7243 67.4531 20.2341 65.6059 20.2341H15.3646C13.5174 20.2341 12.0201 18.7243 12.0201 16.8618C12.0201 14.9992 13.5174 13.4894 15.3646 13.4894V13.4894Z" fill="white"/>
<path d="M40.4853 28.9841C39.459 28.9841 38.6273 29.8228 38.6273 30.8576V66.2675C38.6273 67.3016 39.459 68.141 40.4853 68.141C41.5116 68.141 42.3433 67.3016 42.3433 66.2675V30.8576C42.3433 29.8228 41.5116 28.9841 40.4853 28.9841Z" fill="white"/>
</g>
<defs>
<clipPath id="clip0">
<rect width="79.3388" height="80" fill="white" transform="translate(0.834717)"/>
</clipPath>
</defs>
</svg>
